<?xml version="1.0" encoding="UTF-8" standalone="no"?>
<!-- Generator: Adobe Illustrator 16.0.0, SVG Export Plug-In . SVG Version: 6.00 Build 0)  -->

<svg
   xmlns:dc="http://purl.org/dc/elements/1.1/"
   xmlns:cc="http://creativecommons.org/ns#"
   xmlns:rdf="http://www.w3.org/1999/02/22-rdf-syntax-ns#"
   xmlns:svg="http://www.w3.org/2000/svg"
   xmlns="http://www.w3.org/2000/svg"
   xmlns:sodipodi="http://sodipodi.sourceforge.net/DTD/sodipodi-0.dtd"
   xmlns:inkscape="http://www.inkscape.org/namespaces/inkscape"
   version="1.1"
   id="Layer_1"
   x="0px"
   y="0px"
   width="640.4447"
   height="515.13373"
   viewBox="0 0 640.44471 515.13372"
   enable-background="new 0 0 140 32"
   xml:space="preserve"
   sodipodi:docname="logo.svg"
   inkscape:version="0.92.1 r15371"><metadata
     id="metadata4512"><rdf:RDF><cc:Work
         rdf:about=""><dc:format>image/svg+xml</dc:format><dc:type
           rdf:resource="http://purl.org/dc/dcmitype/StillImage" /></cc:Work></rdf:RDF></metadata><defs
     id="defs4510" /><sodipodi:namedview
     pagecolor="#ffffff"
     bordercolor="#666666"
     borderopacity="1"
     objecttolerance="10"
     gridtolerance="10"
     guidetolerance="10"
     inkscape:pageopacity="0"
     inkscape:pageshadow="2"
     inkscape:window-width="1920"
     inkscape:window-height="990"
     id="namedview4508"
     showgrid="false"
     inkscape:zoom="0.69722962"
     inkscape:cx="305.76239"
     inkscape:cy="257.56592"
     inkscape:window-x="-11"
     inkscape:window-y="-11"
     inkscape:window-maximized="1"
     inkscape:current-layer="Layer_1" /><g
     id="g4536"
     transform="matrix(2.3039999,0,0,-2.3039999,635.68715,275.28272)"
     style="fill:#ffffff"><path
       d="m 0,0 c -0.293,-13.378 -0.357,-26.765 -0.947,-40.132 -0.147,-3.317 -6.28,-12.862 -12.596,-15.524 -7.187,-3.031 -14.42,-5.955 -21.652,-8.869 -7.596,-3.06 -15.186,-6.142 -22.838,-9.053 -8.983,-3.42 -18.041,-6.634 -27.049,-9.99 -10.135,-3.777 -20.258,-7.594 -30.361,-11.451 h -0.008 c -2.877,-0.926 -14.028,-5.068 -16.944,-5.82 -3.039,-0.784 -6.263,-1.657 -9.32,-1.412 -7.234,0.58 -14.137,2.919 -20.894,5.468 -8.661,3.268 -17.184,6.893 -25.811,10.256 -9.625,3.756 -19.287,7.418 -28.957,11.057 v 0.002 c -1.344,0.789 -8.613,3.26 -10.025,3.902 -10.289,4.656 -20.682,9.09 -30.885,13.926 -10.315,4.887 -15.26,13.246 -15.26,24.724 0.002,26.977 -0.047,53.952 -0.303,80.925 -0.08,8.636 2.864,15.713 9.975,20.392 4.941,3.254 10.539,5.578 15.99,7.973 9.561,4.201 19.242,8.126 28.864,12.187 9.779,4.129 19.541,8.297 29.324,12.417 7.463,3.141 14.877,6.409 22.439,9.291 6.395,2.434 12.836,5.105 19.504,6.383 7.682,1.474 14.065,0.029 21.553,-2.23 4.388,-1.322 10.037,-3.296 14.34,-4.909 8.798,-3.3 17.617,-6.544 26.392,-9.903 2.004,-0.767 8.973,-3.453 10.492,-4.042 7.729,-2.997 15.426,-6.067 23.147,-9.075 9.574,-3.728 19.201,-7.324 28.723,-11.172 4.878,-1.967 9.986,-3.542 14.017,-7.248 4.281,-3.938 7.797,-8.497 8.043,-14.376 C -0.436,38.999 -0.307,24.281 -0.01,9.571 0.053,6.382 0.068,3.19 0,0 M 1.986,4.303 C 1.834,20.154 1.531,36.008 1.242,51.86 c -0.154,8.324 -4.34,14.497 -10.781,19.294 -6.373,4.745 -14.182,6.401 -21.295,9.553 -5.062,2.242 -10.293,4.1 -15.455,6.117 -4.815,1.881 -9.619,3.796 -14.461,5.603 -5.258,1.965 -31.455,11.919 -39.297,14.932 -7.051,2.713 -14.057,5.579 -21.248,7.859 -5.393,1.707 -10.017,3.311 -15.625,4.013 -8.012,1.005 -16.678,-1.149 -24.107,-4.289 -9.43,-3.982 -18.948,-7.756 -28.42,-11.64 -5.276,-2.163 -10.541,-4.35 -15.803,-6.552 -8.207,-3.436 -16.41,-6.882 -24.607,-10.346 -7.817,-3.3 -15.666,-6.524 -23.413,-9.983 -5.552,-2.481 -11.335,-4.642 -15.566,-9.39 -3.59,-4.026 -6.547,-8.371 -6.949,-13.922 -0.221,-3.035 -0.072,-6.098 -0.069,-9.149 0.042,-26.005 0.124,-52.006 0.112,-78.01 -0.006,-10.399 4.24,-18.76 13.238,-23.573 11.727,-6.271 20.693,-9.937 32.783,-15.521 0.756,-0.348 10.944,-4.588 11.858,-4.588 0,0.002 0,0.004 0.002,0.006 7.562,-2.928 15.14,-5.816 22.716,-8.713 7.508,-2.871 14.977,-5.855 22.532,-8.59 7.359,-2.664 14.742,-5.301 22.244,-7.51 3.635,-1.074 7.611,-1.771 11.355,-1.507 4.571,0.322 10.416,2.203 16.11,4.033 0.47,0.101 2.756,0.998 5.281,1.982 0.541,0.133 1.076,0.281 1.592,0.479 1.974,0.742 3.945,1.498 5.914,2.258 0,0 0.004,0 0.006,0.002 3.922,1.511 7.841,3.033 11.785,4.492 7.047,2.609 14.148,5.066 21.195,7.677 6.383,2.366 12.727,4.832 19.076,7.284 5.237,2.017 10.457,4.072 15.678,6.125 3.715,1.459 7.434,2.9 11.121,4.423 6.891,2.846 13.918,5.413 20.582,8.717 5.719,2.838 9.147,8.207 11.49,13.938 1.129,2.754 1.12,6.082 1.149,9.152 0.115,12.593 0.142,25.191 0.021,37.787"
       style="fill:#ffffff;fill-opacity:1;fill-rule:evenodd;stroke:none"
       id="path4538"
       inkscape:connector-curvature="0" /></g><g
     id="g4540"
     transform="matrix(2.3039999,0,0,-2.3039999,404.35556,322.07349)"
     style="fill:#ffffff"><path
       d="m 0,0 h -19.236 -3.743 c 3.514,4.421 3.137,9.343 3.139,14.187 0.008,12.934 0.141,25.872 -0.082,38.802 -0.068,3.982 -1.123,7.943 -1.74,12.003 h 21.447 c -4.965,-9.15 -1.597,-18.99 -2.387,-28.628 6.063,9.592 14.93,17.267 18.315,28.698 H 31.094 C 21.992,58.233 17.035,48.704 10.656,40.314 9.596,38.92 9.414,37.827 10.355,36.245 15.35,27.845 20.084,19.286 25.215,10.973 27.578,7.149 30.648,3.759 33.531,0 29.773,0 25.586,0.38 21.494,-0.096 16.35,-0.693 13.49,1.172 11.217,5.829 8.033,12.338 3.992,18.426 0.305,24.716 -4.104,21.059 -4.33,7.915 0,0"
       style="fill:#ffffff;fill-opacity:1;fill-rule:evenodd;stroke:none"
       id="path4542"
       inkscape:connector-curvature="0" /></g><g
     id="g4544"
     transform="matrix(2.3039999,0,0,-2.3039999,137.35032,190.04924)"
     style="fill:#ffffff"><path
       d="m 0,0 c -2.071,1.817 -3.396,3.574 -5.161,4.402 -3.465,1.624 -7.084,3.175 -10.809,3.924 -3.501,0.701 -6.458,-1.514 -7.845,-4.578 -1.461,-3.234 -0.672,-6.133 1.847,-8.253 2.717,-2.289 5.797,-4.166 8.799,-6.093 3.833,-2.456 8.033,-4.424 11.579,-7.23 12.568,-9.946 10.938,-28.329 -3.157,-35.901 -9.526,-5.121 -19.426,-4.654 -29.289,-0.879 -0.861,0.332 -1.787,1.334 -2.059,2.214 -1.359,4.444 -2.509,8.951 -3.762,13.542 3.315,-2.078 6.288,-4.46 9.663,-5.915 3.324,-1.432 7.012,-2.286 10.623,-2.732 3.795,-0.47 6.679,1.594 8.422,4.987 1.791,3.496 1.457,7.162 -1.45,9.564 -4.396,3.643 -9.329,6.643 -14.077,9.846 -1.53,1.034 -3.235,1.793 -4.794,2.787 -7.861,5.004 -11.345,12.73 -9.715,21.424 1.655,8.79 7.536,14.538 16.773,16.437 7.665,1.576 15.138,0.316 22.549,-1.57 0.725,-0.185 1.759,-1.163 1.782,-1.802 C 0.073,9.661 0,5.142 0,0"
       style="fill:#ffffff;fill-opacity:1;fill-rule:evenodd;stroke:none"
       id="path4546"
       inkscape:connector-curvature="0" /></g><g
     id="g4548"
     transform="matrix(2.3039999,0,0,-2.3039999,212.08424,242.16158)"
     style="fill:#ffffff"><path
       d="M 0,0 C 7.035,0.057 12.188,4.907 11.603,10.668 11.048,16.113 5.562,20.292 0,19.401 Z m -0.23,-10.445 c 0.929,-8.156 -1.815,-16.535 2.855,-24.443 h -22.646 c 3.29,4.096 2.977,8.902 2.977,13.644 0.005,12.942 0.005,25.881 0,38.822 -0.002,4.239 0.064,8.497 -3.468,12.537 C -9.059,29.726 1.699,31.217 12.25,28.647 27.305,24.977 33.118,8.9 23.586,-2.488 19.722,-7.102 14.246,-8.647 8.573,-9.519 5.805,-9.945 2.996,-10.115 -0.23,-10.445"
       style="fill:#ffffff;fill-opacity:1;fill-rule:evenodd;stroke:none"
       id="path4550"
       inkscape:connector-curvature="0" /></g><g
     id="g4552"
     transform="matrix(2.3039999,0,0,-2.3039999,521.30624,197.76118)"
     style="fill:#ffffff"><path
       d="M 0,0 C -0.307,-0.031 -0.615,-0.063 -0.922,-0.096 -2.719,-6.928 -4.516,-13.761 -6.391,-20.882 H 6.596 C 4.33,-13.712 2.168,-6.855 0,0 M 37.57,-54.159 H 14.33 c 2.482,7.576 -1.67,13.91 -3.6,20.614 -0.162,0.569 -1.531,1.105 -2.351,1.121 -5.268,0.101 -10.537,0.099 -15.805,0.007 -0.863,-0.017 -2.355,-0.508 -2.469,-1.02 -1.273,-5.826 -2.388,-11.683 -3.39,-17.56 -0.151,-0.881 0.492,-1.897 0.826,-3.066 h -16.344 c 8.815,13.798 10.522,25.425 14.641,40.681 1.465,5.427 3.639,15.48 4.781,20.982 0.889,4.255 1.031,8.665 1.547,13.392 5.957,0 8.504,0.125 15.504,-0.146 0.961,-0.037 2.287,-1.899 2.701,-3.16 6.139,-18.669 12.133,-37.382 18.207,-56.07 1.818,-5.581 3.463,-11.28 8.992,-15.775"
       style="fill:#ffffff;fill-opacity:1;fill-rule:evenodd;stroke:none"
       id="path4554"
       inkscape:connector-curvature="0" /></g><g
     id="g4556"
     transform="matrix(2.3039999,0,0,-2.3039999,334.36718,322.54374)"
     style="fill:#ffffff"><path
       d="m 0,0 h -21.828 c 3.111,3.867 3.105,8.193 3.101,12.527 -0.008,13.256 -0.019,26.512 0.008,39.768 0.009,4.353 -0.034,8.675 -3.14,12.617 H 1.275 C -2.068,60.688 -1.807,55.894 -1.805,51.145 -1.795,38.105 -1.937,25.064 -1.719,12.031 -1.654,8.056 -0.613,4.097 0,0"
       style="fill:#ffffff;fill-opacity:1;fill-rule:evenodd;stroke:none"
       id="path4558"
       inkscape:connector-curvature="0" /></g><g
     id="g4560"
     transform="matrix(2.3039999,0,0,-2.3039999,138.36523,402.82728)"
     style="fill:#ffffff"><path
       d="M 0,0 C 0,1.698 -1.861,1.698 -2.312,1.698 H -4.42 v -3.314 h 2.108 C -1.411,-1.616 0,-1.351 0,0 m -4.42,4.195 h 2.108 c 0.389,0 2.108,0.143 2.108,1.699 0,1.698 -2.108,1.575 -2.108,1.575 H -4.42 Z M 0.553,3.049 c 2.23,-0.778 2.148,-3.131 2.148,-3.131 0,-3.969 -4.031,-4.153 -5.013,-4.153 h -4.625 c -0.102,0 -0.183,0.082 -0.183,0.164 V 9.925 c 0,0.081 0.081,0.163 0.183,0.163 h 4.625 c 0,0 4.83,0.123 4.83,-4.052 0,-1.637 -0.901,-2.557 -1.965,-2.987"
       style="fill:#ffffff;fill-opacity:1;fill-rule:nonzero;stroke:none"
       id="path4562"
       inkscape:connector-curvature="0" /></g><g
     id="g4564"
     transform="matrix(2.3039999,0,0,-2.3039999,161.33311,385.57197)"
     style="fill:#ffffff"><path
       d="m 0,0 v -3.314 h 5.587 c 0.122,0 0.184,-0.082 0.184,-0.165 v -2.23 c 0,-0.082 -0.062,-0.163 -0.184,-0.163 H 0 v -3.274 h 6.753 c 0.123,0 0.205,-0.083 0.205,-0.165 v -2.25 c 0,-0.082 -0.082,-0.164 -0.205,-0.164 h -9.27 c -0.102,0 -0.183,0.082 -0.183,0.164 V 2.436 c 0,0.081 0.081,0.163 0.183,0.163 h 9.27 c 0.123,0 0.205,-0.082 0.205,-0.163 V 0.164 C 6.958,0.082 6.876,0 6.753,0 Z"
       style="fill:#ffffff;fill-opacity:1;fill-rule:nonzero;stroke:none"
       id="path4566"
       inkscape:connector-curvature="0" /></g><g
     id="g4568"
     transform="matrix(2.3039999,0,0,-2.3039999,193.77804,385.57197)"
     style="fill:#ffffff"><path
       d="m 0,0 v -3.314 h 5.587 c 0.122,0 0.184,-0.082 0.184,-0.165 v -2.23 c 0,-0.082 -0.062,-0.163 -0.184,-0.163 H 0 v -3.274 h 6.753 c 0.123,0 0.205,-0.083 0.205,-0.165 v -2.25 c 0,-0.082 -0.082,-0.164 -0.205,-0.164 h -9.27 c -0.102,0 -0.183,0.082 -0.183,0.164 V 2.436 c 0,0.081 0.081,0.163 0.183,0.163 h 9.27 c 0.123,0 0.205,-0.082 0.205,-0.163 V 0.164 C 6.958,0.082 6.876,0 6.753,0 Z"
       style="fill:#ffffff;fill-opacity:1;fill-rule:nonzero;stroke:none"
       id="path4570"
       inkscape:connector-curvature="0" /></g><g
     id="g4572"
     transform="matrix(2.3039999,0,0,-2.3039999,226.22322,393.20856)"
     style="fill:#ffffff"><path
       d="m 0,0 h 2.088 c 0.593,0 2.128,0.082 2.128,1.657 0,1.575 -1.698,1.657 -2.128,1.657 H 0 Z M 1.535,-2.619 H 0 V -8.246 C 0,-8.328 -0.081,-8.41 -0.204,-8.41 h -2.333 c -0.103,0 -0.184,0.082 -0.184,0.164 V 5.75 c 0,0.081 0.081,0.163 0.184,0.163 h 4.625 c 0.818,0 4.849,-0.041 4.849,-4.256 0,-2.189 -1.208,-3.335 -2.639,-3.846 C 5.198,-4.216 6.159,-6.18 7.06,-8.186 7.121,-8.308 7.039,-8.41 6.896,-8.41 H 4.339 c -0.062,0 -0.164,0.061 -0.185,0.102 z"
       style="fill:#ffffff;fill-opacity:1;fill-rule:nonzero;stroke:none"
       id="path4574"
       inkscape:connector-curvature="0" /></g><g
     id="g4576"
     transform="matrix(2.3039999,0,0,-2.3039999,296.57606,403.95903)"
     style="fill:#ffffff"><path
       d="m 0,0 c 0.082,0.062 0.205,0.062 0.286,0 l 1.617,-1.637 c 0.082,-0.061 0.082,-0.183 0,-0.245 -1.268,-1.268 -3.049,-2.067 -5.034,-2.067 -3.929,0 -7.161,2.845 -7.161,7.305 0,4.277 2.967,7.428 7.161,7.428 1.985,0 3.766,-0.777 5.034,-2.067 0.082,-0.061 0.082,-0.184 0,-0.245 L 0.286,6.855 C 0.205,6.794 0.082,6.794 0,6.855 c -0.818,0.798 -1.923,1.31 -3.131,1.31 -2.741,0 -4.399,-2.107 -4.399,-4.809 0,-2.885 1.965,-4.666 4.399,-4.666 1.208,0 2.313,0.492 3.131,1.31"
       style="fill:#ffffff;fill-opacity:1;fill-rule:nonzero;stroke:none"
       id="path4578"
       inkscape:connector-curvature="0" /></g><g
     id="g4580"
     transform="matrix(2.3039999,0,0,-2.3039999,336.42374,396.13119)"
     style="fill:#ffffff"><path
       d="m 0,0 c 0,2.394 -1.453,4.788 -4.297,4.788 -2.886,0 -4.318,-2.394 -4.318,-4.788 0,-2.374 1.432,-4.747 4.318,-4.747 C -1.453,-4.747 0,-2.374 0,0 m 2.762,0.041 c 0,-3.663 -2.373,-7.367 -7.059,-7.367 -4.768,0 -7.1,3.704 -7.1,7.367 0,3.662 2.332,7.346 7.1,7.346 4.686,0 7.059,-3.684 7.059,-7.346"
       style="fill:#ffffff;fill-opacity:1;fill-rule:nonzero;stroke:none"
       id="path4582"
       inkscape:connector-curvature="0" /></g><g
     id="g4584"
     transform="matrix(2.3039999,0,0,-2.3039999,389.56874,412.20759)"
     style="fill:#ffffff"><path
       d="m 0,0 c 0,-0.082 -0.082,-0.164 -0.205,-0.164 h -2.332 c -0.123,0 -0.205,0.082 -0.205,0.164 V 7.857 L -6.384,0.511 C -6.404,0.471 -6.507,0.409 -6.548,0.409 h -2.21 c -0.061,0 -0.164,0.062 -0.184,0.102 l -3.888,7.53 V 0 c 0,-0.082 -0.081,-0.164 -0.204,-0.164 h -2.354 c -0.123,0 -0.183,0.082 -0.183,0.164 v 14.017 c 0,0.081 0.06,0.163 0.183,0.163 h 2.395 c 0.061,0 0.163,-0.062 0.183,-0.103 l 5.137,-10.517 4.91,10.517 c 0.021,0.041 0.123,0.103 0.185,0.103 h 2.373 C -0.082,14.18 0,14.098 0,14.017 Z"
       style="fill:#ffffff;fill-opacity:1;fill-rule:nonzero;stroke:none"
       id="path4586"
       inkscape:connector-curvature="0" /></g><g
     id="g4588"
     transform="matrix(2.3039999,0,0,-2.3039999,417.63284,389.53206)"
     style="fill:#ffffff"><path
       d="m 0,0 c 0,1.596 -1.801,1.678 -2.128,1.678 h -2.129 v -3.294 h 2.129 C -1.76,-1.616 0,-1.575 0,0 m 2.721,0 c 0,-4.215 -4.501,-4.256 -4.849,-4.256 h -2.129 v -5.627 c 0,-0.082 -0.06,-0.164 -0.183,-0.164 h -2.333 c -0.103,0 -0.184,0.082 -0.184,0.164 V 4.154 c 0,0.081 0.081,0.163 0.184,0.163 h 4.645 C -1.556,4.317 2.721,4.235 2.721,0"
       style="fill:#ffffff;fill-opacity:1;fill-rule:nonzero;stroke:none"
       id="path4590"
       inkscape:connector-curvature="0" /></g><g
     id="g4592"
     transform="matrix(2.3039999,0,0,-2.3039999,440.36249,403.29756)"
     style="fill:#ffffff"><path
       d="M 0,0 H 2.885 L 1.453,4.297 Z M 3.765,-2.415 H -0.88 l -0.553,-1.514 c -0.02,-0.061 -0.102,-0.102 -0.183,-0.102 h -2.518 c -0.163,0 -0.245,0.102 -0.183,0.224 l 5.586,14.406 c 0.061,0.143 0.306,0.143 0.368,0 L 7.223,-3.807 C 7.284,-3.929 7.202,-4.031 7.06,-4.031 H 4.522 c -0.061,0 -0.143,0.041 -0.164,0.102 z"
       style="fill:#ffffff;fill-opacity:1;fill-rule:nonzero;stroke:none"
       id="path4594"
       inkscape:connector-curvature="0" /></g><g
     id="g4596"
     transform="matrix(2.3039999,0,0,-2.3039999,493.03268,412.20759)"
     style="fill:#ffffff"><path
       d="m 0,0 c 0,-0.082 -0.082,-0.164 -0.205,-0.164 h -2.353 c -0.041,0 -0.143,0.02 -0.164,0.061 L -9.311,9.33 V 0 c 0,-0.082 -0.081,-0.164 -0.204,-0.164 h -2.353 c -0.103,0 -0.184,0.082 -0.184,0.164 v 13.996 c 0,0.081 0.081,0.163 0.184,0.163 h 2.374 c 0.041,0 0.142,-0.02 0.163,-0.061 l 6.609,-9.433 v 9.331 c 0,0.081 0.082,0.163 0.205,0.163 h 2.312 C -0.082,14.159 0,14.077 0,13.996 Z"
       style="fill:#ffffff;fill-opacity:1;fill-rule:nonzero;stroke:none"
       id="path4598"
       inkscape:connector-curvature="0" /></g><g
     id="g4600"
     transform="matrix(2.3039999,0,0,-2.3039999,531.37049,379.58481)"
     style="fill:#ffffff"><path
       d="m 0,0 c 0.185,0 0.267,-0.143 0.164,-0.266 l -5.218,-7.325 v -6.568 c 0,-0.082 -0.082,-0.164 -0.205,-0.164 h -2.332 c -0.123,0 -0.205,0.082 -0.205,0.164 v 6.568 c -1.719,2.455 -3.499,4.89 -5.218,7.325 C -13.116,-0.143 -13.034,0 -12.85,0 h 2.844 c 0.041,0 0.144,-0.021 0.164,-0.062 l 3.417,-4.767 3.417,4.767 C -2.987,-0.021 -2.905,0 -2.864,0 Z"
       style="fill:#ffffff;fill-opacity:1;fill-rule:nonzero;stroke:none"
       id="path4602"
       inkscape:connector-curvature="0" /></g><g
     id="g4604"
     transform="matrix(2.3039999,0,0,-2.3039999,311.45324,66.012487)"
     style="fill:#ffffff"><path
       d="m 0,0 4.668,-9.456 10.436,-1.518 -7.553,-7.361 1.781,-10.394 -9.332,4.908 -9.336,-4.908 1.783,10.394 -7.551,7.361 10.435,1.518 z"
       style="fill:#ffffff;fill-opacity:1;fill-rule:nonzero;stroke:none"
       id="path4606"
       inkscape:connector-curvature="0" /></g><g
     id="g4608"
     transform="matrix(2.3039999,0,0,-2.3039999,380.00162,124.74191)"
     style="fill:#ffffff"><path
       d="m 0,0 -2.563,2.563 c 0.11,0.157 0.153,0.388 0.159,0.72 0.023,1.433 -0.364,2.724 -1.381,3.771 -0.088,0.089 -0.141,0.168 -0.17,0.246 h 2.203 C -1.756,7.224 -1.758,7.149 -1.758,7.074 -1.818,6.49 -1.523,5.666 -1.088,4.856 -0.092,3.011 2.354,1.919 4.24,2.317 4.314,2.332 4.379,2.351 4.441,2.371 l 2.633,-2.633 c 0.072,-0.074 0.194,-0.074 0.266,0 0.072,0.073 0.072,0.191 0,0.262 L 4.742,2.597 C 4.791,2.672 4.824,2.768 4.836,2.895 5.004,4.527 4.562,5.966 3.473,7.188 3.434,7.229 3.406,7.265 3.385,7.3 H 5.508 C 5.521,6.579 5.697,5.878 6.047,5.198 7.033,3.28 8.652,2.248 10.857,2.24 c 0.508,0 0.836,0.048 1.039,0.199 l 2.045,-2.044 c 0.073,-0.073 0.19,-0.073 0.264,0 0.072,0.073 0.072,0.19 0,0.265 l -2.088,2.086 c 0.082,0.224 0.096,0.54 0.078,0.985 C 12.135,5.018 11.738,6.227 10.75,7.145 10.689,7.2 10.65,7.252 10.623,7.3 h 1.631 c 0.035,-0.441 0.223,-0.861 0.572,-1.153 0.721,-0.603 1.498,-0.711 2.391,-0.646 1.332,0.098 2.431,0.585 3.342,1.57 0.076,0.084 0.13,0.158 0.168,0.229 h 2.572 c 0.099,0 0.183,0.083 0.183,0.185 0,0.103 -0.084,0.186 -0.183,0.186 h -2.57 c -0.04,0.077 -0.102,0.156 -0.188,0.239 -1.02,0.995 -2.24,1.501 -3.9,1.576 C 14.395,9.431 13.906,9.373 13.461,9.213 12.744,8.955 12.338,8.324 12.264,7.671 h -1.573 c 0.022,0.029 0.047,0.058 0.075,0.092 0.306,0.345 0.632,0.713 0.82,1.129 0.502,1.128 0.84,2.298 0.428,3.522 -0.018,0.005 -0.034,0.013 -0.047,0.02 l 2.238,2.239 c 0.072,0.072 0.072,0.189 0,0.262 -0.074,0.074 -0.191,0.074 -0.264,0 L 11.58,12.575 C 10.781,12.809 9.988,12.698 9.262,12.46 7.67,11.944 6.492,10.927 5.869,9.277 5.664,8.733 5.547,8.196 5.514,7.671 H 3.387 c 0.025,0.034 0.054,0.073 0.093,0.114 1.145,1.224 1.52,2.7 1.332,4.337 -0.007,0.057 -0.031,0.117 -0.066,0.176 l 2.815,2.812 c 0.07,0.074 0.07,0.191 0,0.261 -0.075,0.075 -0.194,0.075 -0.264,0 L 4.449,12.525 C 3.35,12.859 2.254,12.684 1.264,12.195 -0.523,11.313 -1.562,9.895 -1.732,7.671 h -2.166 c 0.033,0.049 0.07,0.099 0.119,0.154 0.873,0.986 1.332,2.151 1.39,3.502 -0.019,0.243 -0.009,0.522 -0.074,0.783 -0.008,0.024 -0.017,0.047 -0.027,0.073 L 0,14.673 c 0.074,0.072 0.074,0.189 0,0.262 -0.072,0.074 -0.189,0.074 -0.264,0 l -2.461,-2.462 c -0.015,0.011 -0.033,0.02 -0.05,0.026 -0.844,0.302 -1.745,0.257 -2.549,-0.027 -2.52,-0.887 -3.58,-2.49 -3.748,-4.801 h -3.285 c -0.102,0 -0.184,-0.083 -0.184,-0.186 0,-0.102 0.082,-0.185 0.184,-0.185 h 3.271 c -0.012,-1.175 0.414,-2.292 1.236,-3.213 1.182,-1.323 2.661,-1.95 4.438,-1.839 0.226,0.013 0.404,0.043 0.545,0.096 l 2.603,-2.606 c 0.075,-0.074 0.192,-0.074 0.264,0 0.074,0.073 0.074,0.191 0,0.262"
       style="fill:#ffffff;fill-opacity:1;fill-rule:nonzero;stroke:none"
       id="path4610"
       inkscape:connector-curvature="0" /></g><g
     id="g4612"
     transform="matrix(2.3039999,0,0,-2.3039999,242.90464,89.925465)"
     style="fill:#ffffff"><path
       d="M 0,0 2.563,-2.563 C 2.453,-2.721 2.409,-2.951 2.404,-3.284 2.38,-4.716 2.766,-6.006 3.783,-7.054 3.87,-7.142 3.925,-7.223 3.956,-7.299 H 1.75 c 10e-4,0.075 0.005,0.149 0.009,0.225 0.06,0.584 -0.238,1.407 -0.673,2.218 -0.995,1.847 -3.44,2.938 -5.329,2.539 -0.073,-0.016 -0.139,-0.034 -0.199,-0.055 l -2.635,2.635 c -0.072,0.073 -0.194,0.073 -0.262,0 -0.075,-0.074 -0.075,-0.191 0,-0.263 l 2.594,-2.597 c -0.046,-0.076 -0.082,-0.171 -0.092,-0.299 -0.17,-1.632 0.275,-3.07 1.364,-4.292 0.035,-0.041 0.063,-0.078 0.086,-0.111 h -2.122 c -0.012,0.718 -0.19,1.421 -0.541,2.101 -0.986,1.918 -2.604,2.95 -4.809,2.958 -0.508,0.001 -0.834,-0.048 -1.039,-0.198 l -2.042,2.043 c -0.075,0.073 -0.193,0.073 -0.267,0 -0.071,-0.072 -0.071,-0.19 0,-0.262 l 2.089,-2.088 c -0.083,-0.226 -0.097,-0.542 -0.076,-0.984 0.055,-1.288 0.454,-2.499 1.441,-3.417 0.062,-0.055 0.103,-0.105 0.128,-0.153 h -1.63 c -0.036,0.44 -0.224,0.861 -0.574,1.154 -0.719,0.601 -1.497,0.71 -2.388,0.644 -1.333,-0.098 -2.434,-0.584 -3.342,-1.57 -0.076,-0.083 -0.13,-0.158 -0.167,-0.228 H -21.3 c -0.101,0 -0.185,-0.084 -0.185,-0.186 0,-0.102 0.084,-0.188 0.185,-0.188 h 2.57 c 0.039,-0.075 0.101,-0.154 0.189,-0.238 1.019,-0.996 2.24,-1.501 3.9,-1.574 0.245,0.055 0.732,0.113 1.179,0.273 0.716,0.258 1.123,0.889 1.198,1.539 h 1.572 c -0.023,-0.028 -0.049,-0.058 -0.077,-0.089 -0.307,-0.346 -0.631,-0.714 -0.817,-1.13 -0.505,-1.129 -0.84,-2.297 -0.43,-3.521 0.017,-0.009 0.032,-0.014 0.046,-0.02 l -2.237,-2.239 c -0.071,-0.072 -0.071,-0.19 0,-0.263 0.074,-0.073 0.192,-0.073 0.267,0 l 2.36,2.361 c 0.797,-0.237 1.592,-0.124 2.318,0.112 1.589,0.519 2.77,1.535 3.392,3.186 0.205,0.544 0.321,1.078 0.353,1.603 h 2.129 c -0.027,-0.033 -0.055,-0.068 -0.095,-0.11 -1.143,-1.226 -1.519,-2.702 -1.331,-4.339 0.007,-0.054 0.033,-0.116 0.068,-0.176 l -2.815,-2.811 c -0.073,-0.074 -0.073,-0.192 0,-0.264 0.074,-0.073 0.192,-0.073 0.265,0 l 2.844,2.848 c 1.102,-0.333 2.195,-0.161 3.185,0.33 1.791,0.882 2.828,2.301 2.997,4.522 H 3.896 C 3.864,-7.72 3.827,-7.77 3.778,-7.825 2.904,-8.811 2.446,-9.976 2.388,-11.326 c 0.018,-0.243 0.008,-0.525 0.075,-0.784 0.007,-0.023 0.015,-0.046 0.025,-0.073 L 0,-14.672 c -0.074,-0.072 -0.074,-0.19 0,-0.263 0.07,-0.073 0.188,-0.073 0.26,0 l 2.462,2.462 c 0.018,-0.01 0.034,-0.02 0.049,-0.025 0.847,-0.303 1.746,-0.257 2.551,0.027 2.521,0.884 3.582,2.49 3.751,4.798 h 3.281 c 0.104,0 0.187,0.086 0.187,0.188 0,0.102 -0.083,0.186 -0.187,0.186 H 9.085 C 9.094,-6.125 8.669,-5.006 7.848,-4.087 6.666,-2.764 5.186,-2.138 3.411,-2.248 3.187,-2.261 3.005,-2.291 2.865,-2.343 L 0.26,0.263 C 0.188,0.336 0.07,0.336 0,0.263 -0.074,0.189 -0.074,0.072 0,0"
       style="fill:#ffffff;fill-opacity:1;fill-rule:nonzero;stroke:none"
       id="path4614"
       inkscape:connector-curvature="0" /></g><g
     id="g4616"
     transform="matrix(2.3039999,0,0,-2.3039999,551.85215,353.73)"
     style="fill:#ffffff"><path
       d="m 0,0 h -200.68 c -0.828,0 -1.5,0.672 -1.5,1.5 0,0.829 0.672,1.5 1.5,1.5 H 0 C 0.829,3 1.5,2.329 1.5,1.5 1.5,0.672 0.829,0 0,0"
       style="fill:#ffffff;fill-opacity:1;fill-rule:nonzero;stroke:none"
       id="path4618"
       inkscape:connector-curvature="0" /></g></svg>