<?xml version="1.0" encoding="UTF-8" standalone="no"?>
<!-- Created with Inkscape (http://www.inkscape.org/) -->

<svg
   xmlns:dc="http://purl.org/dc/elements/1.1/"
   xmlns:cc="http://creativecommons.org/ns#"
   xmlns:rdf="http://www.w3.org/1999/02/22-rdf-syntax-ns#"
   xmlns:svg="http://www.w3.org/2000/svg"
   xmlns="http://www.w3.org/2000/svg"
   xmlns:sodipodi="http://sodipodi.sourceforge.net/DTD/sodipodi-0.dtd"
   xmlns:inkscape="http://www.inkscape.org/namespaces/inkscape"
   width="104.90633mm"
   height="85.347328mm"
   viewBox="0 0 104.90633 85.347328"
   version="1.1"
   id="svg4741"
   inkscape:version="0.92.1 r15371"
   sodipodi:docname="logo.svg">
  <defs
     id="defs4735" />
  <sodipodi:namedview
     id="base"
     pagecolor="#ffffff"
     bordercolor="#666666"
     borderopacity="1.0"
     inkscape:pageopacity="0.0"
     inkscape:pageshadow="2"
     inkscape:zoom="0.35"
     inkscape:cx="-547.46612"
     inkscape:cy="-112.99942"
     inkscape:document-units="mm"
     inkscape:current-layer="layer1"
     showgrid="false"
     inkscape:window-width="1920"
     inkscape:window-height="990"
     inkscape:window-x="-11"
     inkscape:window-y="-11"
     inkscape:window-maximized="1" />
  <metadata
     id="metadata4738">
    <rdf:RDF>
      <cc:Work
         rdf:about="">
        <dc:format>image/svg+xml</dc:format>
        <dc:type
           rdf:resource="http://purl.org/dc/dcmitype/StillImage" />
        <dc:title></dc:title>
      </cc:Work>
    </rdf:RDF>
  </metadata>
  <g
     inkscape:label="Capa 1"
     inkscape:groupmode="layer"
     id="layer1"
     transform="translate(-51.868267,-33.588241)">
    <g
       id="g3698"
       transform="matrix(0.35277777,0,0,-0.35277777,156.58846,93.278396)">
      <path
         d="m 0,0 c -0.057,-2.965 -0.592,-5.861 -1.846,-8.66 -4.142,-9.274 -12.008,-14.277 -21.06,-17.863 -8.983,-3.555 -17.887,-7.305 -26.905,-10.772 -7.564,-2.91 -15.283,-5.412 -22.849,-8.316 -8.051,-3.09 -15.955,-6.565 -24.01,-9.643 -6.537,-2.494 -13.225,-4.586 -19.801,-6.976 -3.758,-1.368 -7.42,-3.002 -11.142,-4.463 -2.838,-1.116 -5.674,-2.248 -8.569,-3.19 -6.334,-2.062 -11.17,-2.846 -14.797,-2.846 -3.935,0 -13.527,1.93 -17.701,3.377 -9.252,3.207 -18.355,6.834 -27.496,10.35 -5.027,1.932 -9.98,4.059 -15.015,5.965 -6.764,2.558 -13.608,4.908 -20.354,7.508 -4.68,1.8 -34.836,15.08 -38.865,16.943 -5.18,2.397 -10.399,5.141 -14.783,8.736 -7.493,6.141 -11.627,14.022 -11.647,23.926 -0.055,27.716 0.404,55.83 0.024,83.546 -0.102,7.255 -0.069,14.464 4.539,20.572 2.316,3.074 4.863,6.089 7.783,8.573 6.617,5.631 15.088,7.711 22.851,11.111 12.334,5.399 24.762,10.589 37.178,15.803 5.35,2.248 10.791,4.272 16.139,6.522 4.351,1.831 8.584,3.946 12.945,5.749 5.287,2.186 10.633,4.241 15.996,6.242 5.119,1.905 10.186,4.1 15.469,5.365 5.203,1.245 7.316,1.762 12.937,1.618 3.627,-0.093 10.467,-1.559 13.997,-2.501 5.173,-1.38 10.24,-3.187 15.291,-4.983 6.517,-2.317 13,-4.747 19.457,-7.229 4.927,-1.894 9.775,-3.994 14.691,-5.911 2.293,-0.894 4.699,-1.489 6.996,-2.368 8.391,-3.206 16.774,-6.438 25.129,-9.733 9.676,-3.818 19.229,-7.977 29.014,-11.496 7.74,-2.788 14.91,-6.162 20.265,-12.65 C -2.086,107.4 0.227,101.859 0.379,95.45 0.779,78.387 0.275,14.695 0,0"
         style="fill:#000000;fill-opacity:1;fill-rule:evenodd;stroke:none"
         id="path3700"
         inkscape:connector-curvature="0" />
    </g>
    <g
       id="g3706"
       transform="matrix(0.35277777,0,0,-0.35277777,117.48798,86.089314)">
      <path
         d="m 0,0 h -19.236 -3.743 c 3.514,4.421 3.137,9.343 3.139,14.187 0.008,12.934 0.141,25.872 -0.082,38.802 -0.068,3.982 -1.123,7.943 -1.74,12.003 h 21.447 c -4.965,-9.15 -1.597,-18.99 -2.387,-28.628 6.063,9.592 14.93,17.267 18.315,28.698 H 31.094 C 21.992,58.233 17.035,48.704 10.656,40.314 9.596,38.92 9.414,37.827 10.355,36.245 15.35,27.845 20.084,19.286 25.215,10.973 27.578,7.149 30.648,3.759 33.531,0 29.773,0 25.586,0.38 21.494,-0.096 16.35,-0.693 13.49,1.172 11.217,5.829 8.033,12.338 3.992,18.426 0.305,24.716 -4.104,21.059 -4.33,7.915 0,0"
         style="fill:#ffffff;fill-opacity:1;fill-rule:evenodd;stroke:none"
         id="path3708"
         inkscape:connector-curvature="0" />
    </g>
    <g
       id="g3710"
       transform="matrix(0.35277777,0,0,-0.35277777,76.605377,65.874373)">
      <path
         d="m 0,0 c -2.071,1.817 -3.396,3.574 -5.161,4.402 -3.465,1.624 -7.084,3.175 -10.809,3.924 -3.501,0.701 -6.458,-1.514 -7.845,-4.578 -1.461,-3.234 -0.672,-6.133 1.847,-8.253 2.717,-2.289 5.797,-4.166 8.799,-6.093 3.833,-2.456 8.033,-4.424 11.579,-7.23 12.568,-9.946 10.938,-28.329 -3.157,-35.901 -9.526,-5.121 -19.426,-4.654 -29.289,-0.879 -0.861,0.332 -1.787,1.334 -2.059,2.214 -1.359,4.444 -2.509,8.951 -3.762,13.542 3.315,-2.078 6.288,-4.46 9.663,-5.915 3.324,-1.432 7.012,-2.286 10.623,-2.732 3.795,-0.47 6.679,1.594 8.422,4.987 1.791,3.496 1.457,7.162 -1.45,9.564 -4.396,3.643 -9.329,6.643 -14.077,9.846 -1.53,1.034 -3.235,1.793 -4.794,2.787 -7.861,5.004 -11.345,12.73 -9.715,21.424 1.655,8.79 7.536,14.538 16.773,16.437 7.665,1.576 15.138,0.316 22.549,-1.57 0.725,-0.185 1.759,-1.163 1.782,-1.802 C 0.073,9.661 0,5.142 0,0"
         style="fill:#ffffff;fill-opacity:1;fill-rule:evenodd;stroke:none"
         id="path3712"
         inkscape:connector-curvature="0" />
    </g>
    <g
       id="g3714"
       transform="matrix(0.35277777,0,0,-0.35277777,88.048288,73.853571)">
      <path
         d="M 0,0 C 7.035,0.057 12.188,4.907 11.603,10.668 11.048,16.113 5.562,20.292 0,19.401 Z m -0.23,-10.445 c 0.929,-8.156 -1.815,-16.535 2.855,-24.443 h -22.646 c 3.29,4.096 2.977,8.902 2.977,13.644 0.005,12.942 0.005,25.881 0,38.822 -0.002,4.239 0.064,8.497 -3.468,12.537 C -9.059,29.726 1.699,31.217 12.25,28.647 27.305,24.977 33.118,8.9 23.586,-2.488 19.722,-7.102 14.246,-8.647 8.573,-9.519 5.805,-9.945 2.996,-10.115 -0.23,-10.445"
         style="fill:#ffffff;fill-opacity:1;fill-rule:evenodd;stroke:none"
         id="path3716"
         inkscape:connector-curvature="0" />
    </g>
    <g
       id="g3718"
       transform="matrix(0.35277777,0,0,-0.35277777,135.39491,67.055189)">
      <path
         d="M 0,0 C -0.307,-0.031 -0.615,-0.063 -0.922,-0.096 -2.719,-6.928 -4.516,-13.761 -6.391,-20.882 H 6.596 C 4.33,-13.712 2.168,-6.855 0,0 M 37.57,-54.159 H 14.33 c 2.482,7.576 -1.67,13.91 -3.6,20.614 -0.162,0.569 -1.531,1.105 -2.351,1.121 -5.268,0.101 -10.537,0.099 -15.805,0.007 -0.863,-0.017 -2.355,-0.508 -2.469,-1.02 -1.273,-5.826 -2.388,-11.683 -3.39,-17.56 -0.151,-0.881 0.492,-1.897 0.826,-3.066 h -16.344 c 8.815,13.798 10.522,25.425 14.641,40.681 1.465,5.427 3.639,15.48 4.781,20.982 0.889,4.255 1.031,8.665 1.547,13.392 5.957,0 8.504,0.125 15.504,-0.146 0.961,-0.037 2.287,-1.899 2.701,-3.16 6.139,-18.669 12.133,-37.382 18.207,-56.07 1.818,-5.581 3.463,-11.28 8.992,-15.775"
         style="fill:#ffffff;fill-opacity:1;fill-rule:evenodd;stroke:none"
         id="path3720"
         inkscape:connector-curvature="0" />
    </g>
    <g
       id="g3722"
       transform="matrix(0.35277777,0,0,-0.35277777,106.77169,86.161315)">
      <path
         d="m 0,0 h -21.828 c 3.111,3.867 3.105,8.193 3.101,12.527 -0.008,13.256 -0.019,26.512 0.008,39.768 0.009,4.353 -0.034,8.675 -3.14,12.617 H 1.275 C -2.068,60.688 -1.807,55.894 -1.805,51.145 -1.795,38.105 -1.937,25.064 -1.719,12.031 -1.654,8.056 -0.613,4.097 0,0"
         style="fill:#ffffff;fill-opacity:1;fill-rule:evenodd;stroke:none"
         id="path3724"
         inkscape:connector-curvature="0" />
    </g>
    <g
       id="g3726"
       transform="matrix(0.35277777,0,0,-0.35277777,76.760777,98.453966)">
      <path
         d="M 0,0 C 0,1.698 -1.861,1.698 -2.312,1.698 H -4.42 v -3.314 h 2.108 C -1.411,-1.616 0,-1.351 0,0 m -4.42,4.195 h 2.108 c 0.389,0 2.108,0.143 2.108,1.699 0,1.698 -2.108,1.575 -2.108,1.575 H -4.42 Z M 0.553,3.049 c 2.23,-0.778 2.148,-3.131 2.148,-3.131 0,-3.969 -4.031,-4.153 -5.013,-4.153 h -4.625 c -0.102,0 -0.183,0.082 -0.183,0.164 V 9.925 c 0,0.081 0.081,0.163 0.183,0.163 h 4.625 c 0,0 4.83,0.123 4.83,-4.052 0,-1.637 -0.901,-2.557 -1.965,-2.987"
         style="fill:#ffffff;fill-opacity:1;fill-rule:nonzero;stroke:none"
         id="path3728"
         inkscape:connector-curvature="0" />
    </g>
    <g
       id="g3730"
       transform="matrix(0.35277777,0,0,-0.35277777,80.277512,95.811906)">
      <path
         d="m 0,0 v -3.314 h 5.587 c 0.122,0 0.184,-0.082 0.184,-0.165 v -2.23 c 0,-0.082 -0.062,-0.163 -0.184,-0.163 H 0 v -3.274 h 6.753 c 0.123,0 0.205,-0.083 0.205,-0.165 v -2.25 c 0,-0.082 -0.082,-0.164 -0.205,-0.164 h -9.27 c -0.102,0 -0.183,0.082 -0.183,0.164 V 2.436 c 0,0.081 0.081,0.163 0.183,0.163 h 9.27 c 0.123,0 0.205,-0.082 0.205,-0.163 V 0.164 C 6.958,0.082 6.876,0 6.753,0 Z"
         style="fill:#ffffff;fill-opacity:1;fill-rule:nonzero;stroke:none"
         id="path3732"
         inkscape:connector-curvature="0" />
    </g>
    <g
       id="g3734"
       transform="matrix(0.35277777,0,0,-0.35277777,85.245329,95.811906)">
      <path
         d="m 0,0 v -3.314 h 5.587 c 0.122,0 0.184,-0.082 0.184,-0.165 v -2.23 c 0,-0.082 -0.062,-0.163 -0.184,-0.163 H 0 v -3.274 h 6.753 c 0.123,0 0.205,-0.083 0.205,-0.165 v -2.25 c 0,-0.082 -0.082,-0.164 -0.205,-0.164 h -9.27 c -0.102,0 -0.183,0.082 -0.183,0.164 V 2.436 c 0,0.081 0.081,0.163 0.183,0.163 h 9.27 c 0.123,0 0.205,-0.082 0.205,-0.163 V 0.164 C 6.958,0.082 6.876,0 6.753,0 Z"
         style="fill:#ffffff;fill-opacity:1;fill-rule:nonzero;stroke:none"
         id="path3736"
         inkscape:connector-curvature="0" />
    </g>
    <g
       id="g3738"
       transform="matrix(0.35277777,0,0,-0.35277777,90.21318,96.981186)">
      <path
         d="m 0,0 h 2.088 c 0.593,0 2.128,0.082 2.128,1.657 0,1.575 -1.698,1.657 -2.128,1.657 H 0 Z M 1.535,-2.619 H 0 V -8.246 C 0,-8.328 -0.081,-8.41 -0.204,-8.41 h -2.333 c -0.103,0 -0.184,0.082 -0.184,0.164 V 5.75 c 0,0.081 0.081,0.163 0.184,0.163 h 4.625 c 0.818,0 4.849,-0.041 4.849,-4.256 0,-2.189 -1.208,-3.335 -2.639,-3.846 C 5.198,-4.216 6.159,-6.18 7.06,-8.186 7.121,-8.308 7.039,-8.41 6.896,-8.41 H 4.339 c -0.062,0 -0.164,0.061 -0.185,0.102 z"
         style="fill:#ffffff;fill-opacity:1;fill-rule:nonzero;stroke:none"
         id="path3740"
         inkscape:connector-curvature="0" />
    </g>
    <g
       id="g3742"
       transform="matrix(0.35277777,0,0,-0.35277777,100.98528,98.627246)">
      <path
         d="m 0,0 c 0.082,0.062 0.205,0.062 0.286,0 l 1.617,-1.637 c 0.082,-0.061 0.082,-0.183 0,-0.245 -1.268,-1.268 -3.049,-2.067 -5.034,-2.067 -3.929,0 -7.161,2.845 -7.161,7.305 0,4.277 2.967,7.428 7.161,7.428 1.985,0 3.766,-0.777 5.034,-2.067 0.082,-0.061 0.082,-0.184 0,-0.245 L 0.286,6.855 C 0.205,6.794 0.082,6.794 0,6.855 c -0.818,0.798 -1.923,1.31 -3.131,1.31 -2.741,0 -4.399,-2.107 -4.399,-4.809 0,-2.885 1.965,-4.666 4.399,-4.666 1.208,0 2.313,0.492 3.131,1.31"
         style="fill:#ffffff;fill-opacity:1;fill-rule:nonzero;stroke:none"
         id="path3744"
         inkscape:connector-curvature="0" />
    </g>
    <g
       id="g3746"
       transform="matrix(0.35277777,0,0,-0.35277777,107.08657,97.428686)">
      <path
         d="m 0,0 c 0,2.394 -1.453,4.788 -4.297,4.788 -2.886,0 -4.318,-2.394 -4.318,-4.788 0,-2.374 1.432,-4.747 4.318,-4.747 C -1.453,-4.747 0,-2.374 0,0 m 2.762,0.041 c 0,-3.663 -2.373,-7.367 -7.059,-7.367 -4.768,0 -7.1,3.704 -7.1,7.367 0,3.662 2.332,7.346 7.1,7.346 4.686,0 7.059,-3.684 7.059,-7.346"
         style="fill:#ffffff;fill-opacity:1;fill-rule:nonzero;stroke:none"
         id="path3748"
         inkscape:connector-curvature="0" />
    </g>
    <g
       id="g3750"
       transform="matrix(0.35277777,0,0,-0.35277777,115.22389,99.890226)">
      <path
         d="m 0,0 c 0,-0.082 -0.082,-0.164 -0.205,-0.164 h -2.332 c -0.123,0 -0.205,0.082 -0.205,0.164 V 7.857 L -6.384,0.511 C -6.404,0.471 -6.507,0.409 -6.548,0.409 h -2.21 c -0.061,0 -0.164,0.062 -0.184,0.102 l -3.888,7.53 V 0 c 0,-0.082 -0.081,-0.164 -0.204,-0.164 h -2.354 c -0.123,0 -0.183,0.082 -0.183,0.164 v 14.017 c 0,0.081 0.06,0.163 0.183,0.163 h 2.395 c 0.061,0 0.163,-0.062 0.183,-0.103 l 5.137,-10.517 4.91,10.517 c 0.021,0.041 0.123,0.103 0.185,0.103 h 2.373 C -0.082,14.18 0,14.098 0,14.017 Z"
         style="fill:#ffffff;fill-opacity:1;fill-rule:nonzero;stroke:none"
         id="path3752"
         inkscape:connector-curvature="0" />
    </g>
    <g
       id="g3754"
       transform="matrix(0.35277777,0,0,-0.35277777,119.52093,96.418256)">
      <path
         d="m 0,0 c 0,1.596 -1.801,1.678 -2.128,1.678 h -2.129 v -3.294 h 2.129 C -1.76,-1.616 0,-1.575 0,0 m 2.721,0 c 0,-4.215 -4.501,-4.256 -4.849,-4.256 h -2.129 v -5.627 c 0,-0.082 -0.06,-0.164 -0.183,-0.164 h -2.333 c -0.103,0 -0.184,0.082 -0.184,0.164 V 4.154 c 0,0.081 0.081,0.163 0.184,0.163 h 4.645 C -1.556,4.317 2.721,4.235 2.721,0"
         style="fill:#ffffff;fill-opacity:1;fill-rule:nonzero;stroke:none"
         id="path3756"
         inkscape:connector-curvature="0" />
    </g>
    <g
       id="g3758"
       transform="matrix(0.35277777,0,0,-0.35277777,123.00119,98.525966)">
      <path
         d="M 0,0 H 2.885 L 1.453,4.297 Z M 3.765,-2.415 H -0.88 l -0.553,-1.514 c -0.02,-0.061 -0.102,-0.102 -0.183,-0.102 h -2.518 c -0.163,0 -0.245,0.102 -0.183,0.224 l 5.586,14.406 c 0.061,0.143 0.306,0.143 0.368,0 L 7.223,-3.807 C 7.284,-3.929 7.202,-4.031 7.06,-4.031 H 4.522 c -0.061,0 -0.143,0.041 -0.164,0.102 z"
         style="fill:#ffffff;fill-opacity:1;fill-rule:nonzero;stroke:none"
         id="path3760"
         inkscape:connector-curvature="0" />
    </g>
    <g
       id="g3762"
       transform="matrix(0.35277777,0,0,-0.35277777,131.0658,99.890226)">
      <path
         d="m 0,0 c 0,-0.082 -0.082,-0.164 -0.205,-0.164 h -2.353 c -0.041,0 -0.143,0.02 -0.164,0.061 L -9.311,9.33 V 0 c 0,-0.082 -0.081,-0.164 -0.204,-0.164 h -2.353 c -0.103,0 -0.184,0.082 -0.184,0.164 v 13.996 c 0,0.081 0.081,0.163 0.184,0.163 h 2.374 c 0.041,0 0.142,-0.02 0.163,-0.061 l 6.609,-9.433 v 9.331 c 0,0.081 0.082,0.163 0.205,0.163 h 2.312 C -0.082,14.159 0,14.077 0,13.996 Z"
         style="fill:#ffffff;fill-opacity:1;fill-rule:nonzero;stroke:none"
         id="path3764"
         inkscape:connector-curvature="0" />
    </g>
    <g
       id="g3766"
       transform="matrix(0.35277777,0,0,-0.35277777,136.93591,94.895176)">
      <path
         d="m 0,0 c 0.185,0 0.267,-0.143 0.164,-0.266 l -5.218,-7.325 v -6.568 c 0,-0.082 -0.082,-0.164 -0.205,-0.164 h -2.332 c -0.123,0 -0.205,0.082 -0.205,0.164 v 6.568 c -1.719,2.455 -3.499,4.89 -5.218,7.325 C -13.116,-0.143 -13.034,0 -12.85,0 h 2.844 c 0.041,0 0.144,-0.021 0.164,-0.062 l 3.417,-4.767 3.417,4.767 C -2.987,-0.021 -2.905,0 -2.864,0 Z"
         style="fill:#ffffff;fill-opacity:1;fill-rule:nonzero;stroke:none"
         id="path3768"
         inkscape:connector-curvature="0" />
    </g>
    <g
       id="g3770"
       transform="matrix(0.35277777,0,0,-0.35277777,103.2632,46.882442)">
      <path
         d="m 0,0 4.668,-9.456 10.436,-1.518 -7.553,-7.361 1.781,-10.394 -9.332,4.908 -9.336,-4.908 1.783,10.394 -7.551,7.361 10.435,1.518 z"
         style="fill:#ffffff;fill-opacity:1;fill-rule:nonzero;stroke:none"
         id="path3772"
         inkscape:connector-curvature="0" />
    </g>
    <g
       id="g3774"
       transform="matrix(0.35277777,0,0,-0.35277777,113.75901,55.874817)">
      <path
         d="m 0,0 -2.563,2.563 c 0.11,0.157 0.153,0.388 0.159,0.72 0.023,1.433 -0.364,2.724 -1.381,3.771 -0.088,0.089 -0.141,0.168 -0.17,0.246 h 2.203 C -1.756,7.224 -1.758,7.149 -1.758,7.074 -1.818,6.49 -1.523,5.666 -1.088,4.856 -0.092,3.011 2.354,1.919 4.24,2.317 4.314,2.332 4.379,2.351 4.441,2.371 l 2.633,-2.633 c 0.072,-0.074 0.194,-0.074 0.266,0 0.072,0.073 0.072,0.191 0,0.262 L 4.742,2.597 C 4.791,2.672 4.824,2.768 4.836,2.895 5.004,4.527 4.562,5.966 3.473,7.188 3.434,7.229 3.406,7.265 3.385,7.3 H 5.508 C 5.521,6.579 5.697,5.878 6.047,5.198 7.033,3.28 8.652,2.248 10.857,2.24 c 0.508,0 0.836,0.048 1.039,0.199 l 2.045,-2.044 c 0.073,-0.073 0.19,-0.073 0.264,0 0.072,0.073 0.072,0.19 0,0.265 l -2.088,2.086 c 0.082,0.224 0.096,0.54 0.078,0.985 C 12.135,5.018 11.738,6.227 10.75,7.145 10.689,7.2 10.65,7.252 10.623,7.3 h 1.631 c 0.035,-0.441 0.223,-0.861 0.572,-1.153 0.721,-0.603 1.498,-0.711 2.391,-0.646 1.332,0.098 2.431,0.585 3.342,1.57 0.076,0.084 0.13,0.158 0.168,0.229 h 2.572 c 0.099,0 0.183,0.083 0.183,0.185 0,0.103 -0.084,0.186 -0.183,0.186 h -2.57 c -0.04,0.077 -0.102,0.156 -0.188,0.239 -1.02,0.995 -2.24,1.501 -3.9,1.576 C 14.395,9.431 13.906,9.373 13.461,9.213 12.744,8.955 12.338,8.324 12.264,7.671 h -1.573 c 0.022,0.029 0.047,0.058 0.075,0.092 0.306,0.345 0.632,0.713 0.82,1.129 0.502,1.128 0.84,2.298 0.428,3.522 -0.018,0.005 -0.034,0.013 -0.047,0.02 l 2.238,2.239 c 0.072,0.072 0.072,0.189 0,0.262 -0.074,0.074 -0.191,0.074 -0.264,0 L 11.58,12.575 C 10.781,12.809 9.988,12.698 9.262,12.46 7.67,11.944 6.492,10.927 5.869,9.277 5.664,8.733 5.547,8.196 5.514,7.671 H 3.387 c 0.025,0.034 0.054,0.073 0.093,0.114 1.145,1.224 1.52,2.7 1.332,4.337 -0.007,0.057 -0.031,0.117 -0.066,0.176 l 2.815,2.812 c 0.07,0.074 0.07,0.191 0,0.261 -0.075,0.075 -0.194,0.075 -0.264,0 L 4.449,12.525 C 3.35,12.859 2.254,12.684 1.264,12.195 -0.523,11.313 -1.562,9.895 -1.732,7.671 h -2.166 c 0.033,0.049 0.07,0.099 0.119,0.154 0.873,0.986 1.332,2.151 1.39,3.502 -0.019,0.243 -0.009,0.522 -0.074,0.783 -0.008,0.024 -0.017,0.047 -0.027,0.073 L 0,14.673 c 0.074,0.072 0.074,0.189 0,0.262 -0.072,0.074 -0.189,0.074 -0.264,0 l -2.461,-2.462 c -0.015,0.011 -0.033,0.02 -0.05,0.026 -0.844,0.302 -1.745,0.257 -2.549,-0.027 -2.52,-0.887 -3.58,-2.49 -3.748,-4.801 h -3.285 c -0.102,0 -0.184,-0.083 -0.184,-0.186 0,-0.102 0.082,-0.185 0.184,-0.185 h 3.271 c -0.012,-1.175 0.414,-2.292 1.236,-3.213 1.182,-1.323 2.661,-1.95 4.438,-1.839 0.226,0.013 0.404,0.043 0.545,0.096 l 2.603,-2.606 c 0.075,-0.074 0.192,-0.074 0.264,0 0.074,0.073 0.074,0.191 0,0.262"
         style="fill:#ffffff;fill-opacity:1;fill-rule:nonzero;stroke:none"
         id="path3776"
         inkscape:connector-curvature="0" />
    </g>
    <g
       id="g3778"
       transform="matrix(0.35277777,0,0,-0.35277777,92.767362,50.543886)">
      <path
         d="M 0,0 2.563,-2.563 C 2.453,-2.721 2.409,-2.951 2.404,-3.284 2.38,-4.716 2.766,-6.006 3.783,-7.054 3.87,-7.142 3.925,-7.223 3.956,-7.299 H 1.75 c 10e-4,0.075 0.005,0.149 0.009,0.225 0.06,0.584 -0.238,1.407 -0.673,2.218 -0.995,1.847 -3.44,2.938 -5.329,2.539 -0.073,-0.016 -0.139,-0.034 -0.199,-0.055 l -2.635,2.635 c -0.072,0.073 -0.194,0.073 -0.262,0 -0.075,-0.074 -0.075,-0.191 0,-0.263 l 2.594,-2.597 c -0.046,-0.076 -0.082,-0.171 -0.092,-0.299 -0.17,-1.632 0.275,-3.07 1.364,-4.292 0.035,-0.041 0.063,-0.078 0.086,-0.111 h -2.122 c -0.012,0.718 -0.19,1.421 -0.541,2.101 -0.986,1.918 -2.604,2.95 -4.809,2.958 -0.508,0.001 -0.834,-0.048 -1.039,-0.198 l -2.042,2.043 c -0.075,0.073 -0.193,0.073 -0.267,0 -0.071,-0.072 -0.071,-0.19 0,-0.262 l 2.089,-2.088 c -0.083,-0.226 -0.097,-0.542 -0.076,-0.984 0.055,-1.288 0.454,-2.499 1.441,-3.417 0.062,-0.055 0.103,-0.105 0.128,-0.153 h -1.63 c -0.036,0.44 -0.224,0.861 -0.574,1.154 -0.719,0.601 -1.497,0.71 -2.388,0.644 -1.333,-0.098 -2.434,-0.584 -3.342,-1.57 -0.076,-0.083 -0.13,-0.158 -0.167,-0.228 H -21.3 c -0.101,0 -0.185,-0.084 -0.185,-0.186 0,-0.102 0.084,-0.188 0.185,-0.188 h 2.57 c 0.039,-0.075 0.101,-0.154 0.189,-0.238 1.019,-0.996 2.24,-1.501 3.9,-1.574 0.245,0.055 0.732,0.113 1.179,0.273 0.716,0.258 1.123,0.889 1.198,1.539 h 1.572 c -0.023,-0.028 -0.049,-0.058 -0.077,-0.089 -0.307,-0.346 -0.631,-0.714 -0.817,-1.13 -0.505,-1.129 -0.84,-2.297 -0.43,-3.521 0.017,-0.009 0.032,-0.014 0.046,-0.02 l -2.237,-2.239 c -0.071,-0.072 -0.071,-0.19 0,-0.263 0.074,-0.073 0.192,-0.073 0.267,0 l 2.36,2.361 c 0.797,-0.237 1.592,-0.124 2.318,0.112 1.589,0.519 2.77,1.535 3.392,3.186 0.205,0.544 0.321,1.078 0.353,1.603 h 2.129 c -0.027,-0.033 -0.055,-0.068 -0.095,-0.11 -1.143,-1.226 -1.519,-2.702 -1.331,-4.339 0.007,-0.054 0.033,-0.116 0.068,-0.176 l -2.815,-2.811 c -0.073,-0.074 -0.073,-0.192 0,-0.264 0.074,-0.073 0.192,-0.073 0.265,0 l 2.844,2.848 c 1.102,-0.333 2.195,-0.161 3.185,0.33 1.791,0.882 2.828,2.301 2.997,4.522 H 3.896 C 3.864,-7.72 3.827,-7.77 3.778,-7.825 2.904,-8.811 2.446,-9.976 2.388,-11.326 c 0.018,-0.243 0.008,-0.525 0.075,-0.784 0.007,-0.023 0.015,-0.046 0.025,-0.073 L 0,-14.672 c -0.074,-0.072 -0.074,-0.19 0,-0.263 0.07,-0.073 0.188,-0.073 0.26,0 l 2.462,2.462 c 0.018,-0.01 0.034,-0.02 0.049,-0.025 0.847,-0.303 1.746,-0.257 2.551,0.027 2.521,0.884 3.582,2.49 3.751,4.798 h 3.281 c 0.104,0 0.187,0.086 0.187,0.188 0,0.102 -0.083,0.186 -0.187,0.186 H 9.085 C 9.094,-6.125 8.669,-5.006 7.848,-4.087 6.666,-2.764 5.186,-2.138 3.411,-2.248 3.187,-2.261 3.005,-2.291 2.865,-2.343 L 0.26,0.263 C 0.188,0.336 0.07,0.336 0,0.263 -0.074,0.189 -0.074,0.072 0,0"
         style="fill:#ffffff;fill-opacity:1;fill-rule:nonzero;stroke:none"
         id="path3780"
         inkscape:connector-curvature="0" />
    </g>
    <g
       id="g3782"
       transform="matrix(0.35277777,0,0,-0.35277777,140.07197,90.93641)">
      <path
         d="m 0,0 h -200.68 c -0.828,0 -1.5,0.672 -1.5,1.5 0,0.829 0.672,1.5 1.5,1.5 H 0 C 0.829,3 1.5,2.329 1.5,1.5 1.5,0.672 0.829,0 0,0"
         style="fill:#ffffff;fill-opacity:1;fill-rule:nonzero;stroke:none"
         id="path3784"
         inkscape:connector-curvature="0" />
    </g>
  </g>
</svg>
